<?xml version="1.0" encoding="utf-8"?>
<!-- Generator: Adobe Illustrator 23.0.4, SVG Export Plug-In . SVG Version: 6.00 Build 0)  -->
<svg version="1.1" id="Layer_1" xmlns="http://www.w3.org/2000/svg" xmlns:xlink="http://www.w3.org/1999/xlink" x="0px" y="0px"
	 viewBox="0 0 841.89 595.28" style="enable-background:new 0 0 841.89 595.28;" xml:space="preserve">
<style type="text/css">
	.st0{fill-rule:evenodd;clip-rule:evenodd;fill:none;}
	.st1{fill-rule:evenodd;clip-rule:evenodd;fill:#00A89E;}
	.st2{fill-rule:evenodd;clip-rule:evenodd;}
</style>
<g>
	<rect x="142.1" y="18.8" class="st0" width="557.69" height="557.69"/>
	<g>
		<path class="st1" d="M564.65,184.36l107.79-0.05l-53.83,95.63c17.69,26.09,29.79,56.32,15.13,89.92
			c-12.6,28.1-38.09,42.79-68.92,44.72c-26.07,2.01-54.14-17.05-66.1-38.04c-11.13-19.05-13.89-44.95-3.73-67.86l69.49-124.1
			L564.65,184.36L564.65,184.36z M574.74,201.29l0.08,0.18l33.79,59.39c11.22-19.86,22.91-39.88,33.22-59.6L574.74,201.29
			L574.74,201.29z M564.55,219.77l-53.59,95.09c-5.13,11.78-7.37,26.83-2.26,42.13c4.78,16.83,20.7,32.76,37.66,37.64
			c18.12,5.95,40.8,2.95,57.54-12.39c18.32-16.49,27.67-42.2,13.54-67.86L564.55,219.77L564.55,219.77z M564.4,390.48
			c28.39-0.01,51.4-23.04,51.38-51.44c-0.02-23.85-23.05-51.41-51.44-51.4c-28.39,0.01-51.4,23.05-51.38,51.46
			C512.98,367.48,536.01,390.5,564.4,390.48L564.4,390.48z"/>
		<g>
			<path class="st2" d="M425.6,219.26c-0.76-1.4-1.95-1.87-2.97-1.87l-14.24,0.01c-1.38,0-2.55,0.84-3.05,2.04l-14.84,45.36
				c-0.08,0.28-0.11,0.57-0.12,0.86c0.01,1.66,1.36,3.01,3.01,3.01l9,0c1.41,0,2.6-0.85,3.07-2.1l0.82-2.4
				c0.18-0.43,0.31-0.41,0.88-0.42l0.04,0.01l16.95-0.01c0,0,0.72-0.1,0.86,1.12l0.54,1.52c0.44,1.31,1.68,2.26,3.14,2.26h8.92
				c1.67,0,3.05-1.35,3.06-3.01c-0.01-0.25-0.04-0.48-0.1-0.72L425.6,219.26z M419.27,249.37h-1h-5.72l-0.74,0
				c-0.47-0.05-0.47-0.15-0.6-0.54l0.04-0.26l3.86-11.77l0.75,0.01l3.93,11.98C419.78,248.99,419.82,249.3,419.27,249.37z"/>
			<path class="st2" d="M481.76,206.93c0-0.14-0.02-0.26-0.05-0.39l-8.04-24.5c-0.41-0.75-1.05-1-1.59-1h-7.64
				c-0.74,0.01-1.37,0.46-1.64,1.09l-7.97,24.34c-0.03,0.14-0.05,0.3-0.06,0.46c0.01,0.89,0.73,1.61,1.62,1.61l4.82,0
				c0.76,0,1.39-0.46,1.66-1.12l0.43-1.29c0.1-0.24,0.17-0.23,0.48-0.23l0.02,0.01l9.1-0.01c0,0,0.37-0.05,0.45,0.61l0.28,0.81
				c0.24,0.71,0.91,1.22,1.7,1.22h4.78C481.01,208.54,481.76,207.82,481.76,206.93z M470.27,198.2h-0.52l-3.09,0h-0.39
				c-0.26-0.03-0.25-0.08-0.32-0.29l0.01-0.14l2.08-6.31l0.39,0.01l2.12,6.42C470.55,198,470.57,198.16,470.27,198.2z"/>
			<path class="st2" d="M432.31,208.55l3.34,0c1.26,0,2.27-1.01,2.27-2.26v-8.94c0,0,0.07-0.46,0.51-0.25l10.09,10.98
				c0.28,0.29,0.67,0.47,1.12,0.47l2.09,0c0.99,0,1.8-0.8,1.8-1.8l-0.02-23.45c0-1.25-1.03-2.25-2.29-2.25l-3.3,0
				c-1.26,0-2.29,1.02-2.29,2.27l0.01,9.02c-0.21,0.48-0.56,0.16-0.56,0.16l-10.04-10.96c-0.29-0.29-0.69-0.5-1.13-0.5h-2.1
				c-0.99,0-1.79,0.8-1.79,1.78l0.02,23.45C430.04,207.54,431.06,208.55,432.31,208.55z"/>
			<path class="st2" d="M497.53,181.32c-2.15-0.84-5.06-0.76-5.06-0.76c-4.95,0-8.97,4.02-8.95,8.96c0.01,2.32,0.92,4.73,2.88,6.51
				c0.75,0.77,1.95,1.5,2.66,2.25c0.18,0.21,0.55,0.73,0.54,1.32c-0.03,1.11-0.89,2.05-1.92,2.05c0,0-0.88-0.07-2.04-0.48
				c-0.22-0.07-0.44-0.11-0.67-0.11c-1.19,0-2.16,0.95-2.16,2.14v2.91c0,0.99,0.6,1.81,1.46,2.16c2.14,0.83,5.07,0.77,5.07,0.77
				c4.93,0,8.92-3.86,8.95-9.16c0.02-4.09-3.18-6.98-4.93-8.24c-0.57-0.29-0.98-0.89-0.98-1.58c0-0.98,0.84-1.78,1.83-1.78
				l2.64,0.27c1.18,0,2.15-0.98,2.15-2.17v-2.9C498.98,182.48,498.39,181.68,497.53,181.32z"/>
			<path class="st2" d="M255.82,219.26c-0.75-1.4-1.94-1.87-2.96-1.87l-14.24,0.01c-1.38,0-2.55,0.84-3.06,2.04l-14.84,45.36
				c-0.08,0.28-0.12,0.57-0.12,0.86c0,1.66,1.36,3.01,3.01,3.01l9,0c1.41,0,2.6-0.85,3.08-2.1l0.81-2.4
				c0.18-0.43,0.31-0.41,0.89-0.42l0.04,0.01l16.95-0.01c0,0,0.7-0.1,0.85,1.12l0.53,1.52c0.44,1.31,1.69,2.26,3.15,2.26h8.91
				c1.66,0,3.06-1.35,3.06-3.01c0-0.25-0.04-0.48-0.1-0.72L255.82,219.26z M249.5,249.37h-0.99h-5.73l-0.74,0
				c-0.47-0.05-0.46-0.15-0.59-0.54l0.04-0.26l3.86-11.77l0.74,0.01l3.94,11.98C250,248.99,250.04,249.3,249.5,249.37z"/>
			<path class="st2" d="M414.56,208.96c7.84,0,14.2-6.36,14.2-14.2c-0.01-7.85-6.37-14.2-14.21-14.2
				c-7.83,0.01-14.19,6.37-14.19,14.21C400.36,202.62,406.72,208.96,414.56,208.96z M414.55,188.19c3.63,0,6.58,2.94,6.58,6.57
				c0,3.63-2.94,6.58-6.56,6.58c-3.63,0-6.58-2.94-6.58-6.57C407.98,191.14,410.93,188.19,414.55,188.19z"/>
			<path class="st2" d="M395.87,208.58c1.25,0,2.26-1.02,2.26-2.27c0-0.31-0.07-0.61-0.19-0.88l-2.82-6.75c0,0-0.29-0.4,0.14-0.61
				l0.06-0.06c2.11-1.75,3.46-4.4,3.46-7.36c0-5.27-4.23-9.57-9.5-9.57l-8.2,0.02c-1.26,0-2.29,1.02-2.29,2.27l0.01,22.95
				c0,1.25,1.04,2.27,2.28,2.27l3.32,0c1.25,0,2.25-1.02,2.25-2.28l0.01-5.52v-0.07c0.14-0.31,0.38,0.01,0.38,0.01l2.72,6.46
				c0.35,0.82,1.17,1.4,2.11,1.4L395.87,208.58z M387.56,194.85c-0.08,0-0.89,0.05-0.9-0.6l0.01-5.44c0-0.39,0.8-0.46,0.96-0.46
				c1.24,0,3.2,1,3.2,3.24C390.83,192.98,389.78,194.85,387.56,194.85z"/>
			<path class="st2" d="M359.94,188.96l3.17,0.01c0,0,0.28,0.07,0.3,0.34v16.99c0,1.26,1.01,2.3,2.26,2.3h3.36
				c1.25,0,2.27-1.06,2.27-2.31l-0.01-17.03c-0.02-0.26,0.3-0.29,0.3-0.29l3.18-0.01c1.26,0,2.27-1.03,2.27-2.28l-0.01-3.33
				c0-1.25-1.03-2.26-2.29-2.26l-14.79,0.01c-1.25,0-2.29,1.02-2.29,2.27l0.01,3.31C357.67,187.94,358.69,188.96,359.94,188.96z"/>
			<path class="st2" d="M383.01,237.71l-0.1,0.02h-13.28v-0.02c-2.14,0-3.89,1.73-3.89,3.89l0.02-0.2v4.18
				c0.11,2.04,1.8,3.68,3.87,3.68h0.93c0.6,0,1.09,0.48,1.09,1.1l0.02,0.18v1.91l-0.02-0.06c0,0.45-0.27,0.86-0.66,1.02l-0.29,0.21
				c-1.52,0.64-3.18,1.01-4.94,1.01c-6.81,0-12.33-5.52-12.33-12.33c0-6.81,5.52-12.33,12.33-12.33c2.84,0,5.43,0.95,7.51,2.53
				l0.35,0.33c0.7,0.62,1.48,0.84,2.48,0.84c1.07,0,2.05-0.43,2.75-1.15l-0.46,0.41l5.84-4.32c0.68-0.7,1.09-1.65,1.09-2.71
				c0-1.07-0.43-2.04-1.13-2.74l-0.13-0.24c-4.79-4.51-11.22-7.27-18.3-7.27c-14.7,0-26.62,11.94-26.62,26.65
				c0,14.7,11.92,26.64,26.62,26.64c7.72,0,14.68-3.29,19.54-8.54l0.27-0.19c0.09-0.08,0.19-0.18,0.27-0.27l0.13-0.14
				c0.57-0.68,0.92-1.55,0.92-2.53V241.6C386.89,239.44,385.16,237.71,383.01,237.71z"/>
			<path class="st2" d="M365.76,245.67v-0.09c0-0.07-0.02-0.14-0.02-0.21L365.76,245.67z"/>
			<path class="st2" d="M327.06,181.12L327.06,181.12l-7.2,0.01c-1.18,0-2.27,0.95-2.27,2.26l0.01,23.04c0,1.25,1.02,2.24,2.27,2.24
				l3.33,0c1.25,0,2.27-1.03,2.27-2.28l0.01-3.88c0.04-0.24,0.18-0.35,0.33-0.36c0.38,0,0.8,0.03,1.12,0.03l0.15-0.01
				c5.8,0,10.52-4.71,10.51-10.52C337.57,185.82,332.87,181.12,327.06,181.12z M326.22,194.58c-0.26,0-0.76-0.04-0.76-0.41
				l-0.01-5.7c0.03-0.22,0.25-0.29,0.31-0.3c1.77-0.41,3.86,0.94,3.86,3.17C329.62,192.45,328.89,194.58,326.22,194.58z"/>
			<path class="st2" d="M341.17,208.61l12.65-0.01c1.31,0,2.26-1.14,2.26-2.16v-3.42c0-1.26-1-2.28-2.26-2.28l-6.72,0
				c0,0-0.33-0.03-0.35-0.28l0.01-1.35c-0.01-0.29,0.3-0.34,0.3-0.34l3.88-0.01c1.25,0.01,2.25-0.96,2.25-2.21l-0.01-3.34
				c0.01-1.26-1-2.28-2.26-2.28l-3.8,0c-0.35,0-0.37-0.27-0.37-0.27l-0.01-1.36c0.01-0.29,0.29-0.32,0.29-0.32
				c3.25,0,4.23-0.01,6.69-0.02c1.25,0,2.28-1.03,2.28-2.28l-0.01-3.33c0-1.26-1.02-2.26-2.27-2.26h-12.59
				c-1.25,0-2.29,1.04-2.29,2.29l0.01,22.93C338.89,207.58,339.92,208.61,341.17,208.61z"/>
			<path class="st2" d="M329.2,216.74h-6.84c-0.44,0-3.99,0.28-3.99,4.05l-0.04,1.24v42.4c-0.06,2.82,1.99,4.04,3.99,4.14h6.92
				c2-0.1,4.05-1.32,3.99-4.14v-42.4l-0.04-1.24C333.19,217.02,329.64,216.74,329.2,216.74z"/>
			<path class="st2" d="M471.76,252.75h-10.54v-30.72l-0.04-1.24c0-3.77-3.55-4.05-3.99-4.05h-6.84c-0.44,0-3.99,0.28-3.99,4.05
				l-0.04,1.24v42.4c-0.06,2.82,1.99,4.04,3.99,4.14h6.92c0.07,0,0.14-0.02,0.2-0.02h14.32c2.82,0.06,4.04-1.99,4.14-3.99v-7.82
				C475.8,254.74,474.58,252.69,471.76,252.75z"/>
			<path class="st2" d="M491.55,216.74h-6.84c-0.44,0-3.99,0.28-3.99,4.05l-0.04,1.24v42.4c-0.06,2.82,1.99,4.04,3.99,4.14h6.92
				c2-0.1,4.05-1.32,3.99-4.14v-42.4l-0.04-1.24C495.54,217.02,491.99,216.74,491.55,216.74z"/>
			<path class="st2" d="M214.55,228.99c0.68-0.7,1.09-1.65,1.09-2.71c0-1.06-0.42-2.04-1.12-2.73l-0.13-0.24
				c-4.78-4.51-11.22-7.28-18.3-7.28c-14.7,0-26.62,11.95-26.62,26.65s11.92,26.65,26.62,26.65c7.08,0,13.52-2.77,18.3-7.28
				l0.13-0.24c0.71-0.69,1.12-1.67,1.12-2.73c0-1.05-0.41-2.01-1.09-2.71l-5.83-4.32l0.45,0.41c-0.7-0.72-1.67-1.15-2.74-1.15
				c-1.01,0-1.79,0.21-2.49,0.84l-0.36,0.33c-2.08,1.57-4.67,2.53-7.5,2.53c-6.8,0-12.33-5.52-12.33-12.33s5.52-12.33,12.33-12.33
				c2.84,0,5.42,0.96,7.5,2.53l0.36,0.33c0.7,0.62,1.48,0.84,2.49,0.84c1.06,0,2.04-0.43,2.74-1.15l-0.45,0.41L214.55,228.99z"/>
			<path class="st2" d="M305.62,249.04l0.12-0.11c3.94-3.27,6.46-8.19,6.45-13.71c0-9.81-7.88-17.84-17.69-17.84l-15.28,0.04
				c-2.34,0-4.27,1.9-4.27,4.23l0.02,42.76c0,2.33,1.93,4.23,4.25,4.23l6.18,0c2.33,0,4.2-1.9,4.2-4.24l0.03-10.29v-0.13
				c0.27-0.57,0.71,0.03,0.71,0.03l5.07,12.03c0.65,1.53,2.18,2.61,3.93,2.61l7.4-0.01c2.33,0,4.21-1.91,4.21-4.24
				c0-0.58-0.13-1.14-0.35-1.64l-5.25-12.58C305.36,250.19,304.82,249.44,305.62,249.04z M291.27,243.07c-0.15,0-1.66,0.1-1.68-1.11
				l0.03-10.14c0-0.72,1.49-0.85,1.79-0.85c2.31,0,5.96,1.86,5.96,6.04C297.36,239.58,295.4,243.07,291.27,243.07z"/>
		</g>
	</g>
</g>
</svg>
